<?xml version="1.0" encoding="utf-8"?>
<!-- Generator: Adobe Illustrator 21.0.0, SVG Export Plug-In . SVG Version: 6.00 Build 0)  -->
<svg version="1.1" id="Layer_1" xmlns="http://www.w3.org/2000/svg" xmlns:xlink="http://www.w3.org/1999/xlink" x="0px" y="0px"
	 viewBox="0 0 254.8 263.3" style="enable-background:new 0 0 254.8 263.3;" xml:space="preserve">
<g>
	<path d="M11.8,90.6c0.8,4.2,2.1,8.2,3.4,12.1c1.4,3.9,3,7.7,4.8,11.4c0.9,1.8,1.8,3.7,2.7,5.5c1,1.8,1.9,3.6,3,5.4l0,0
		c1,1.8,3.2,2.6,5.2,2c4.3-1.4,8.6-2.8,12.9-4.3c4.3-1.5,8.5-3,12.7-4.7c2.1-0.8,4.2-1.7,6.3-2.6l3.2-1.4l1.6-0.7l0.8-0.4l0.9-0.5
		c2.5-1.3,4.6-3.2,6.3-5.2c1.7-2.1,3.1-4.3,4.1-6.7c2-4.8,2.8-10,1.8-15.3c-0.5-2.6-1.4-5.2-3-7.5c-0.8-1.2-1.8-2.2-2.8-3.1
		c-1.1-0.9-2.2-1.7-3.5-2.3c-2.5-1.2-5.2-1.7-7.9-1.7c-2.7,0-5.2,0.7-7.5,1.6c-2.3,1-4.4,2.2-6.3,3.6c-1,0.7-1.9,1.5-2.8,2.2
		c-0.2,0.2-0.3,0.3-0.5,0.5c-1.1-2.9-2.4-5.6-4-8.4l-0.9-1.4c-0.3-0.5-0.7-0.9-1-1.4c-0.4-0.5-0.7-0.9-1.2-1.4l-0.7-0.7
		c-0.2-0.2-0.6-0.4-0.9-0.7l-0.5-0.3L37.7,64l-0.8-0.4c-0.5-0.3-1-0.5-1.5-0.7c-0.5-0.2-1.1-0.4-1.6-0.6c-0.5-0.2-1.1-0.3-1.7-0.5
		c-2.3-0.5-4.7-0.7-7.2-0.3c-2.5,0.4-5,1.5-7,3.2c-2,1.6-3.5,3.7-4.6,5.8c-0.3,0.5-0.5,1.1-0.7,1.6c-0.2,0.5-0.4,1.1-0.6,1.7
		l-0.3,0.9l-0.2,0.9c-0.1,0.6-0.3,1.2-0.3,1.7c-0.4,2.3-0.4,4.6-0.2,6.8C11.1,86.3,11.4,88.5,11.8,90.6z M19,78.3
		c0.3-3.1,1.6-6.4,3.6-8.2c1-1,2.2-1.6,3.7-2c1.4-0.4,3-0.4,4.6-0.1c0.4,0,0.8,0.1,1.2,0.2c0.4,0.1,0.8,0.2,1.2,0.3
		c0.4,0.1,0.8,0.3,1.2,0.4l0.6,0.2l0.3,0.1l0.1,0.1c0.1,0.1,0.2,0.1,0.3,0.2l0.4,0.3c0.3,0.2,0.5,0.5,0.8,0.8l0.8,1l0.8,1.1
		c2.1,3,3.9,6.5,5.5,10l0.1,0.3c0.2,0.3,0.4,0.7,0.8,0.9c1,0.6,2.3,0.4,2.9-0.6l0.2-0.2l0.4-0.6l0.5-0.4c0.4-0.3,0.9-0.7,1.3-1
		c0.9-0.6,1.8-1.2,2.7-1.7c1.8-1.1,3.7-2,5.6-2.6c1.9-0.6,3.8-0.9,5.6-0.8c1.8,0.1,3.6,0.7,5.1,1.5c3,1.7,4.7,4.8,5.2,8.5
		c0.4,3.6-0.3,7.6-1.9,11c-1.6,3.4-4.2,6.3-7.1,7.8l-0.6,0.3l-0.7,0.3l-1.5,0.6l-3,1.2c-2,0.8-4.1,1.6-6.2,2.4
		c-7.1,2.6-14.4,5.1-21.7,7.4c-0.3-0.6-0.7-1.3-1-1.9c-0.9-1.7-1.8-3.4-2.7-5.2c-1.7-3.5-3.3-7-4.7-10.5c-1.4-3.5-2.6-7.1-3.5-10.7
		c-0.5-1.8-0.8-3.6-1-5.3C18.9,81.7,18.8,80,19,78.3z"/>
	<path d="M180.6,98.9c0,0.2,0,0.5,0,0.7c-2.9-1.1-5.8-2-8.9-2.7l-1.6-0.3c-0.6-0.1-1.1-0.1-1.7-0.2c-0.6,0-1.2-0.1-1.8,0l-1,0.1
		c-0.3,0-0.7,0.1-1.1,0.2l-0.6,0.1l-0.4,0.1l-0.8,0.3c-0.5,0.2-1,0.4-1.5,0.7c-0.5,0.2-1,0.5-1.5,0.8c-0.5,0.3-1,0.6-1.5,0.9
		c-1.9,1.3-3.7,3-5.1,5.1c-1.4,2.1-2.2,4.7-2.4,7.3c-0.1,2.6,0.3,5.1,1.2,7.3c0.2,0.6,0.5,1.1,0.7,1.6c0.2,0.5,0.5,1.1,0.8,1.6
		l0.5,0.8l0.5,0.7c0.3,0.5,0.7,1,1.1,1.4c1.5,1.8,3.1,3.4,4.8,4.7c1.7,1.4,3.5,2.6,5.3,3.7c3.6,2.2,7.4,4,11.2,5.6
		c3.8,1.6,7.7,3,11.6,4.2c2,0.6,3.9,1.2,5.9,1.7c2,0.5,3.9,1,6.1,1.4l0,0c2,0.4,4.1-0.6,5-2.5c1.9-4.1,3.7-8.2,5.5-12.4
		c1.8-4.1,3.5-8.3,5.1-12.6c0.8-2.1,1.6-4.3,2.4-6.4l1.1-3.3l0.5-1.7l0.3-0.8l0.3-1c0.7-2.7,0.8-5.5,0.4-8.2
		c-0.4-2.7-1.1-5.2-2.2-7.5c-2.2-4.7-5.5-8.8-10-11.7c-2.3-1.4-4.8-2.5-7.6-2.8c-1.4-0.2-2.8-0.2-4.2-0.1c-1.4,0.2-2.8,0.5-4,1.1
		c-2.6,1-4.8,2.6-6.6,4.6c-1.8,2-3,4.3-3.9,6.7c-0.9,2.4-1.3,4.7-1.6,7.1C180.6,96.6,180.6,97.8,180.6,98.9z M182.2,105.1
		c0.4,0.1,0.8,0.1,1.2,0c1.1-0.3,1.8-1.4,1.5-2.6l-0.1-0.3l-0.2-0.7l0.1-0.7c0.1-0.5,0.1-1.1,0.2-1.6c0.1-1.1,0.3-2.1,0.5-3.1
		c0.4-2.1,1-4,1.9-5.8c0.9-1.8,1.9-3.4,3.2-4.6c1.3-1.2,2.9-2.2,4.6-2.7c3.3-1.1,6.8-0.2,9.7,1.9c3,2.1,5.4,5.3,6.8,8.8
		c1.4,3.5,1.8,7.3,0.9,10.5l-0.2,0.6l-0.3,0.8l-0.5,1.5l-1.1,3.1c-0.8,2-1.6,4.1-2.4,6.1c-2.9,7-6,14.1-9.2,21
		c-0.7-0.2-1.4-0.4-2.1-0.5c-1.9-0.5-3.7-1-5.6-1.5c-3.7-1.1-7.4-2.3-10.9-3.7c-3.6-1.4-7-2.9-10.3-4.7c-1.6-0.9-3.2-1.8-4.6-2.9
		c-1.4-1-2.8-2.2-3.8-3.4c-2.1-2.3-3.6-5.5-3.6-8.2c0-1.4,0.3-2.7,1-4c0.7-1.3,1.8-2.5,3.1-3.5c0.3-0.3,0.7-0.5,1-0.7
		c0.3-0.2,0.7-0.5,1.1-0.7c0.4-0.2,0.7-0.4,1.1-0.6l0.6-0.3l0.3-0.1l0.2,0c0.1,0,0.2-0.1,0.4-0.1l0.5-0.1c0.3-0.1,0.8,0,1.2-0.1
		l1.3,0l1.3,0.1c3.6,0.5,7.5,1.5,11.1,2.7L182.2,105.1z"/>
	<path d="M254,182.3c-1.4-3.8-4.3-6.5-7.4-8.1c-3.1-1.6-6.6-2.2-10-1.9l-0.6,0.1l-0.2,0l-0.4,0.1c-0.3,0.1-0.6,0.1-0.9,0.2l-1,0.3
		l-1.6,0.6l-3.2,1.2l-6.3,2.4c-4.2,1.6-8.4,3.2-12.6,4.8c-4.2,1.6-8.3,3.3-12.5,5c-4.2,1.7-8.3,3.4-12.4,5.1
		c-8.3,3.5-16.5,7.1-24.6,10.9c-1.5,0.7-2.3,2.4-1.8,4c0.5,1.8,2.4,2.9,4.2,2.4c8.7-2.4,17.3-5,25.8-7.7c4.3-1.4,8.5-2.7,12.8-4.1
		c4.3-1.4,8.5-2.8,12.7-4.3l12.7-4.4l6.3-2.2l3.1-1.1l1.5-0.5l0.2-0.1c1.1-0.1,2.1,0.1,2.9,0.6c0.9,0.4,1.5,1,1.8,1.4
		c0.9-0.8,0,5.6,0.4,8.7l0.2,1.8c0.1,0.7,0.4,1.4,1,1.9c1.3,1.2,3.3,1.2,4.5-0.1l0.9-0.9c0.3-0.3,0.5-0.5,0.7-0.8
		c0.4-0.5,0.8-1.1,1.2-1.6c0.7-1.1,1.3-2.2,1.9-3.4c0.3-0.6,0.5-1.2,0.7-1.7c0.2-0.4,0.5-1.6,0.6-2.5
		C255,186.3,254.7,184.1,254,182.3z"/>
	<path d="M242.7,201.6c-1.8-1.2-3.7-2.1-5.6-2.8c-1.9-0.7-3.9-1.2-6.1-1.4c-1.1-0.1-2.1-0.2-3.3-0.1c-0.3,0-0.5,0-0.9,0.1l-1,0.2
		c-0.4,0.1-0.6,0.1-0.8,0.2l-0.7,0.2c-1.8,0.5-3.5,1-5.2,1.6c-6.6,2.2-13.1,4.6-19.5,7.2c-6.4,2.5-12.8,5.2-19,8.1
		c-1,0.5-1.6,1.6-1.3,2.7c0.3,1.3,1.6,2,2.9,1.7c13.3-3.4,26.5-7.5,39.5-11c1.6-0.4,3.2-0.9,4.7-1.2l0.5-0.1c0.2,0,0.4-0.1,0.4-0.1
		c0.1,0,0.2,0,0.2,0c0.1,0,0.3,0,0.4,0c0.6,0,1.2,0,1.8,0.2c2.6,0.4,5.3,1.5,7.4,2.9c1,0.7,1.9,1.5,2.4,2.3c0.3,0.4,0.4,0.7,0.5,1
		c0.1,0.3,0.1,0.5,0.1,0.8c0,0.5-0.3,1.3-0.9,2.2c-0.1,0.2-0.3,0.4-0.4,0.5l-0.3,0.2l-0.5,0.3c-0.3,0.2-0.7,0.4-1,0.6
		c-5.9,3-12.2,5.9-18.3,8.8c-6.2,2.9-12.4,5.8-18.6,8.5c-12.5,5.6-25.2,10.7-38.2,14.8c-6.5,2.1-13.1,3.8-19.7,4.9
		c-3.3,0.5-6.6,0.8-9.7,0.7c-1.5,0-3.1-0.3-4.6-0.6c-0.4-0.1-0.8-0.1-1.2-0.2l-1.2-0.3l-2.3-0.6c-6.1-1.7-12.1-4.4-18.3-7
		c-6.2-2.6-12.7-5.1-19.4-7.4l-5.1-1.6l-5.2-1.4c-3.5-0.8-7.1-1.6-10.7-2c-0.9-0.1-1.8-0.3-2.7-0.3l-2.7-0.2l-2.7-0.2
		c-0.9-0.1-1.8,0-2.7,0c-1.8,0-3.7,0-5.4,0l-5.2,0.3c-7,0.4-13.9,1.1-20.8,2.3c-3.5,0.6-6.9,1.2-10.3,2.1c-1.7,0.4-3.4,0.9-5.1,1.4
		c-0.8,0.3-1.7,0.6-2.5,0.9c-0.9,0.3-1.6,0.6-2.6,1.1c-0.9,0.4-1.5,1.5-1.3,2.5c0.2,1.3,1.4,2.1,2.7,1.9l0.3,0l1.1-0.2l1.2-0.2
		c0.8-0.1,1.6-0.2,2.5-0.3c1.6-0.2,3.3-0.4,5-0.5c3.3-0.2,6.7-0.4,10.1-0.5c6.7-0.2,13.5-0.1,20.2,0.1l5.1,0.2
		c0.9,0,1.7,0.1,2.5,0.1l2.4,0.2c0.8,0.1,1.6,0.1,2.4,0.2l2.4,0.3l2.4,0.3c0.8,0.1,1.6,0.3,2.4,0.5c3.2,0.6,6.3,1.4,9.4,2.2l4.7,1.4
		l4.7,1.6c6.3,2.1,12.5,4.8,19.1,7.1c6.6,2.2,13.6,4.2,21.1,4.8c3.7,0.3,7.4,0.3,11.3-0.2c3.8-0.6,7.2-1.5,10.6-2.4
		c6.7-2,13.3-4.1,19.9-6.2c6.6-2.1,13.1-4.3,19.6-6.5c6.5-2.2,13-4.4,19.6-6.7c6.5-2.3,13-4.6,19.4-7.1c6.5-2.5,12.8-5,19.3-8
		c0.4-0.2,0.8-0.4,1.2-0.6l0.6-0.3l0.7-0.4l0.4-0.2c0,0,0.1,0,0.2-0.1l0.2-0.1l0.4-0.3c0.3-0.2,0.6-0.5,0.7-0.7l0.3-0.3
		c0.4-0.4,0.7-0.8,1.1-1.3c1.4-1.9,2.6-4.3,2.8-7.3c0.2-2.9-0.9-5.8-2.3-7.8C246.2,204.3,244.5,202.8,242.7,201.6z M238.7,216.7
		c0,0,0.1-0.1,0.1-0.1L238.7,216.7z M239.2,216.3L239.2,216.3L239.2,216.3C239.2,216.2,239.2,216.2,239.2,216.3z"/>
	<path d="M2.4,199.8c3.2,0.3,6.5,0.2,9.7-0.4c3.3-0.5,6.4-1.6,9.4-2.7c3-1.2,5.7-2.6,8.4-3.8c2.7-1.3,5.3-2.4,7.9-3.4
		c5.2-2,10.7-3.2,16.3-3.9c2.8-0.4,5.6-0.6,8.5-0.6c1.4-0.1,2.9-0.1,4.3-0.1l1.1,0l1,0c0.7,0,1.3,0.1,2,0.1
		c10.7,0.8,20.3,5.7,29.3,12.8c4.5,3.5,8.8,7.6,13.1,11.9c2.1,2.2,4.3,4.4,6.6,6.5c1.2,1.1,2.4,2.1,3.9,3.1c1.4,1,3.1,1.9,5.1,2.3
		c1,0.2,2.1,0.2,3.2,0c0.3,0,0.5-0.1,0.8-0.2l0.7-0.2l1-0.3c1.4-0.4,2.8-0.8,4.2-1c2.8-0.6,5.7-0.9,8.6-0.9c5.7-0.1,11.3,1,16.1,2.9
		c1.2,0.5,2.3,1.1,3.4,1.7c0.5,0.3,1,0.6,1.6,0.9c0,0,0,0.1,0,0.1c0.1,0.3,0.2,0.7,0.2,1.1c0.1,0.9,0.2,2,0.1,3c0,0.5-0.1,1-0.2,1.4
		c0,0.1,0,0.2-0.1,0.3l-0.4,0.2c-2.5,1.4-5,2.9-7.6,4.3c-2.6,1.4-5.2,2.8-7.9,3.9c-2.7,1.2-5.5,2.1-8.3,3c-2.8,0.8-5.6,1.6-8.2,2
		c-1.3,0.2-2.3,0.3-3.6,0.1c-1.3-0.1-2.7-0.4-4.1-0.7c-5.7-1.2-11.4-3-17-5c-2.8-1-5.7-2-8.5-3.1c-2.8-1-5.7-2.1-8.7-3.1
		c0,0-0.1,0-0.1,0c-1.4-0.4-2.8,0.4-3.2,1.8c-0.4,1.4,0.4,2.8,1.8,3.2l0,0c2.7,0.8,5.6,1.9,8.4,3c2.8,1.1,5.6,2.2,8.5,3.3
		c5.7,2.2,11.3,4.4,17.3,6.2c1.5,0.4,3.1,0.8,4.7,1.2c0.8,0.2,1.7,0.3,2.7,0.3c0.5,0,0.9,0,1.4,0c0.5,0,0.9,0,1.3-0.1
		c3.4-0.3,6.4-1,9.5-1.7l18.1-4.7c3-0.8,6-1.7,9-2.9l1.1-0.5l0.6-0.2c0.2-0.1,0.3-0.1,0.6-0.3c1.4-0.7,2.3-1.7,3-2.5
		c0.6-0.8,1-1.6,1.3-2.2c0.6-1.4,0.9-2.5,1.1-3.6c0.2-1.1,0.3-2.1,0.3-3.1c0-2-0.1-3.9-0.6-6c-0.2-1-0.5-2.1-1-3.2
		c-0.5-1.1-1.1-2.4-2.5-3.9c-0.2-0.2-0.4-0.4-0.6-0.6c-0.2-0.2-0.4-0.4-0.7-0.5l-0.4-0.3l-0.2-0.1c-0.1,0-0.1-0.1-0.1-0.1l-0.3-0.1
		c-0.4-0.2-0.8-0.4-1.2-0.6c-0.8-0.3-1.7-0.7-2.5-1c-1.7-0.6-3.4-1-5.1-1.3c-6.8-1.3-13.5-0.6-19.7,0.6c-3.1,0.6-6.2,1.3-9.2,2.2
		c-1.5,0.4-3,0.9-4.5,1.4l-1.1,0.4c-0.2,0.1-0.3,0.1-0.4,0.1c-0.1,0-0.2,0.1-0.3,0.1c-0.4,0.1-0.8,0.1-1.3,0c-0.9-0.2-2-0.7-3-1.5
		c-1-0.8-2-1.7-3-2.7c-2-2.1-3.8-4.4-5.6-6.8c-3.6-4.8-7.3-9.8-11.7-14.5c-1.6-1.7-3.4-3.4-5.2-5c2.3-0.2,4.7-0.1,7,0.2
		c3.7,0.5,7.3,1.5,10.8,3c1.8,0.7,3.5,1.6,5.2,2.5l2.7,1.4c0.5,0.2,0.9,0.5,1.4,0.7c0.5,0.2,1.1,0.5,1.9,0.8
		c0.2,0.1,0.5,0.1,0.7,0.2c0.2,0,0.4,0.1,0.6,0.1l0.3,0c0.1,0,0.2,0,0.4,0c0.2,0,0.3,0,0.5-0.1l0.3,0l0.1,0l0.5-0.1l0.6-0.2
		c0.7-0.3,1.2-0.5,1.7-0.7c1-0.5,2-0.9,2.9-1.4c1.9-0.9,3.7-1.9,5.5-2.9c7.2-3.9,14.2-7.9,21.2-12l10.5-6.1l5.2-3.1
		c1.7-1,3.5-2,5.1-3.3c2.6-1.9,3.4-5.5,1.7-8.4c-1.8-3.1-5.7-4.1-8.8-2.3l0,0c-1.7,1-3.4,2.2-5,3.4l-4.9,3.5l-9.8,7
		c-6.6,4.7-13.1,9.3-19.8,13.8c-1.7,1.1-3.3,2.2-5,3.3c-0.8,0.5-1.6,1-2.4,1.5c-0.2,0.1-0.5,0.3-0.7,0.4c-0.5-0.2-1-0.4-1.6-0.7
		l-2.8-1.2c-1.9-0.8-3.9-1.6-5.9-2.3c-4.1-1.3-8.3-2.2-12.6-2.5c-4.3-0.2-8.7,0.2-12.8,1.3c-0.1,0-0.1,0-0.2,0.1
		c-1.5-1-3.1-2-4.8-2.8c-6-3.1-12.7-4.8-19.5-5.2c-0.8,0-1.7-0.1-2.5-0.1l-1.3,0l-1.2,0c-1.6,0-3.2,0.1-4.7,0.2
		c-3.2,0.2-6.3,0.5-9.5,1.1c-3.2,0.6-6.3,1.2-9.4,2.2c-3.1,1-6.1,2.2-9.1,3.5c-2.9,1.3-5.7,2.9-8.3,4.5c-2.6,1.6-5.1,3.1-7.6,4.5
		c-2.5,1.4-5,2.5-7.6,3.4c-2.6,0.9-5.3,1.4-8.2,1.8l0,0c-1.2,0.1-2.2,1.1-2.3,2.4C-0.1,198.4,0.9,199.7,2.4,199.8z M169.5,225
		l0.2,0.1c0,0,0,0,0,0L169.5,225C169.5,225,169.4,225,169.5,225l-0.4-0.2c0,0,0,0,0,0L169.5,225z M132.6,187
		C132.6,187,132.6,187,132.6,187c0,0-0.1,0-0.1,0C132.5,187,132.5,187,132.6,187z"/>
	<path d="M218.2,153.6l-1,0.1l-0.3,0l-0.6,0.1c-0.5,0.1-0.7,0.1-0.9,0.2c-1,0.3-1.6,0.5-2.2,0.7c-0.6,0.2-1.1,0.5-1.7,0.7
		c-1.1,0.5-2.1,0.9-3,1.4c-3.9,1.9-7.6,4-11.3,6c-3.7,2.1-7.3,4.1-10.9,6.3l-10.8,6.5l-10.7,6.6c-7,4.5-14.1,9-21,13.7
		c-1.6,1.1-2.1,3.2-1.3,4.9c1,1.9,3.3,2.7,5.2,1.7l0,0c7.4-3.7,14.8-7.6,22.2-11.5l22-11.7c7.3-3.8,14.7-7.8,21.9-11.3
		c0.9-0.4,1.8-0.8,2.6-1.2c0.4-0.2,0.8-0.4,1.2-0.5c0.2-0.1,0.5-0.2,0.6-0.2l0.5,0c0.4,0,0.8,0,1.1,0c0.7,0,1.3,0.1,1.6,0.2
		c0.1,0,0.2,0,0.2,0.1c0.1,0.2,0.3,0.4,0.6,0.8c0.4,0.6,0.9,1.4,1.8,2.4l0.7,0.7c1.8,2,4.9,2.2,7,0.5c1.2-1,1.9-2.3,2.3-3.9
		c0.3-1.5,0.3-3.3-0.4-5.2c-0.7-1.9-2-3.9-3.8-5.2c-1.7-1.4-3.6-2.1-5.3-2.6c-1.7-0.4-3.2-0.5-4.6-0.5
		C219.5,153.5,218.8,153.6,218.2,153.6z"/>
	<path d="M96.9,103.8c-4.2,1.3-8.2,3.5-11.5,6.4c-3.4,2.9-6.1,6.7-7.7,10.7c-1.6,4-2.6,8.2-2.8,12.5c-0.2,4.3,0.3,8.7,1.8,12.8
		c1.4,4.1,3.8,7.9,6.9,11c3.1,3.1,6.8,5.4,10.7,6.9c7.8,3.1,16.7,3.1,24.4,0.1c3.9-1.5,7.4-3.7,10.5-6.4c3.1-2.8,5.6-6.1,7.5-9.8
		c0.5-0.9,0.9-1.8,1.3-2.8c0.4-1,0.8-1.9,1-2.9c0.6-2,1.1-4,1.4-6.1c0.5-4.1,0.2-8.5-1.2-12.6c-1.4-4.1-3.7-7.8-6.8-10.8
		c-3-3-6.6-5.4-10.4-7.1c-3.8-1.7-7.9-2.9-12.1-3.3C105.5,102.2,101.1,102.5,96.9,103.8z M127.8,117.7c2.5,2.2,4.5,5,5.7,8.1
		c2.4,6.2,1.6,13.7-1.5,20c-3,6.3-8.6,11.3-15.2,13.6c-6.6,2.4-14,2-20.2-0.9c-3.1-1.5-5.8-3.5-8-6c-2.2-2.5-3.7-5.4-4.5-8.6
		c-1.7-6.3-0.8-13.2,2-19.3c1.4-2.9,3-5.7,5.2-8c0.6-0.6,1.2-1.1,1.8-1.6c0.6-0.5,1.3-0.9,1.9-1.4l2.1-1.1c0.8-0.3,1.5-0.6,2.2-0.9
		c6.1-2.1,13.3-1.6,19.7,0.9C122.3,113.7,125.3,115.5,127.8,117.7z"/>
	<path d="M101.5,115.2c-0.6,0.2-0.9,0.9-0.7,1.5c0.2,0.7,0.9,1.1,1.6,0.9l0.1,0c1.8-0.5,3.6-0.9,5.4-1c1.8-0.1,3.6,0.1,5.2,0.6
		c3.3,0.9,6.2,3,8.2,5.8c1,1.4,1.8,2.9,2.4,4.6l0.2,0.6l0.2,0.6l0.4,1.2c0.1,0.8,0.4,1.7,0.4,2.5c0.2,1.7,0.1,3.4-0.2,5.1
		c-0.3,1.7-0.9,3.3-1.6,4.8c-1.5,3.1-3.9,5.6-6.8,7.4c-1.4,0.9-3,1.6-4.6,2.1c-1.6,0.4-3.3,0.7-5,0.6c-1.7-0.1-3.3-0.4-4.9-1
		c-1.6-0.6-3.1-1.5-4.4-2.6c-1.4-1-2.6-2.4-3.7-3.8l-0.8-1.1c-0.3-0.4-0.5-0.8-0.7-1.2c-0.5-0.8-0.8-1.6-1.2-2.4l-0.1-0.1
		c-0.4-0.7-1.2-1.1-2.1-0.8c-0.9,0.3-1.4,1.3-1.1,2.2c1.3,3.9,3.5,7.7,6.7,10.6c1.6,1.4,3.4,2.6,5.5,3.5c2,0.9,4.2,1.4,6.4,1.6
		c2.2,0.2,4.4-0.1,6.6-0.6c2.1-0.6,4.1-1.4,6-2.5c3.7-2.3,6.8-5.6,8.7-9.6c0.9-2,1.6-4.1,2-6.2c0.3-2.1,0.5-4.4,0.1-6.5
		c-0.1-1.1-0.4-2.1-0.6-3.2c-0.2-0.5-0.3-1-0.5-1.5l-0.3-0.8l-0.3-0.7c-0.8-2-1.9-3.8-3.3-5.5c-2.7-3.4-6.6-5.9-10.9-6.7
		c-2.1-0.4-4.3-0.4-6.4-0.1C105.4,113.8,103.4,114.4,101.5,115.2z"/>
	<path d="M130.2,55.5c1.6,2.6,3.4,5,5.4,7.2c1.9,2.3,3.9,4.5,6,6.5c2.1,2.1,4.3,4.1,6.6,5.9c2.3,1.9,4.7,3.6,7.2,5.3
		c2.5,1.6,5.1,3.1,8.1,4.1c1.5,0.5,3,0.9,4.8,1.1c0.9,0,1.8,0,2.8-0.2c1-0.2,2-0.7,2.8-1.5c0.7-0.6,1.2-1.4,1.6-2.1l2.1-1.9l2-1.8
		l0.5-0.5c0.2-0.2,0.5-0.5,0.7-0.7c0.4-0.5,0.7-1.1,1-1.7c0.5-1.2,0.6-2.3,0.6-3.4c0-1.1-0.1-2.1-0.3-3.1c-0.4-2-1-3.8-1.8-5.6
		c-1.5-3.5-3.4-6.8-5.5-9.9c-2.1-3.1-4.4-6-6.9-8.8c-2.5-2.8-5.2-5.4-8.1-7.8c-2.9-2.4-6-4.7-9.4-6.5c-1.7-0.9-3.6-1.8-5.6-2.4
		c-1-0.3-2.1-0.5-3.3-0.6c-1.2-0.1-2.5-0.1-4,0.4c-0.7,0.2-1.5,0.6-2.1,1l-0.5,0.4c-0.1,0.1-0.4,0.3-0.4,0.4l-0.5,0.5l-2,1.8l-2,1.8
		c-0.8,0.4-1.6,0.9-2.3,1.6c-1,1-1.7,2.3-2.1,3.5c-0.4,1.2-0.5,2.3-0.5,3.3c0.1,2,0.5,3.7,1,5.3C127.1,50.2,128.6,52.9,130.2,55.5z
		 M143,34.2c1.4,0.4,3,0.9,4.4,1.7c3,1.5,5.9,3.4,8.6,5.5c2.7,2.1,5.4,4.5,7.8,6.9c4.9,5,9.3,10.6,12.3,16.7
		c0.7,1.5,1.3,3.1,1.7,4.7c0.4,1.5,0.5,3.1,0.1,4.2c-0.1,0.3-0.2,0.5-0.3,0.7c-0.1,0.1-0.1,0.2-0.3,0.3l-0.5,0.5l-0.8,0.8
		c-0.1-0.9-0.2-1.8-0.4-2.7c-0.7-3.1-1.9-6-3.2-8.8c-2.7-5.5-6.2-10.4-10.1-15c-4-4.5-8.3-8.8-13.6-12.2c-2.2-1.4-4.6-2.6-7.3-3.6
		C142,34,142.5,34,143,34.2z M132.7,41.9c0.1-0.4,0.2-0.7,0.2-0.9c0.1-0.2,0.2-0.2,0.2-0.2c0,0,0,0,0.2,0c0.2,0,0.5,0,0.9,0
		c0.8,0.1,1.9,0.4,2.9,0.8c2.2,0.8,4.4,2.2,6.6,3.6c4.3,3,8.7,6.3,12.6,10.1c3.9,3.8,7.5,8,10.6,12.5c1.5,2.3,2.8,4.6,3.7,7
		c0.4,1.2,0.7,2.4,0.8,3.5c0,1.1-0.2,1.9-0.6,2.4c-0.4,0.5-1.3,0.8-2.4,0.8c-1.1,0-2.4-0.3-3.6-0.7c-2.5-0.8-4.9-2.1-7.2-3.7
		c-4.6-3-8.8-6.9-12.5-11.1c-3.7-4.2-6.9-8.8-9.3-13.7c-1.2-2.4-2.2-4.9-2.7-7.3C132.7,43.9,132.6,42.8,132.7,41.9z"/>
	<path d="M63.6,56.3c0.8,0.7,1.7,1.2,2.6,1.6c0.1,0.1,0.2,0.1,0.4,0.1l1.6,1.1c0.7,0.5,1.4,1,2.1,1.5l1.1,0.8l1.2,0.8
		c0.9,0.6,1.9,1.1,3,1.4c1,0.3,2.1,0.5,3.1,0.5c2.1,0.1,4-0.3,5.9-0.8c3.7-1.1,7-2.9,10.1-4.9c1.6-1,3-2.1,4.5-3.3
		c1.4-1.2,2.8-2.4,4.1-3.7c2.6-2.6,5.1-5.3,7.3-8.3c2.2-3,4.2-6.2,5.7-9.8c1.6-3.5,2.7-7.3,3-11.6c0.1-2.1-0.1-4.4-0.8-6.7
		c-0.7-2.3-2.2-4.7-4.4-6.5l-6-4.4c-0.6-0.6-1.2-1.2-1.9-1.7c-2-1.5-4.4-2.3-6.6-2.5c-2.2-0.2-4.2,0-6.1,0.5
		c-3.7,0.9-6.8,2.6-9.7,4.5c-2.8,1.9-5.4,4.1-7.7,6.4c-2.3,2.3-4.4,4.8-6.3,7.5c-3.8,5.2-7,11-9,17.2c-0.9,3.1-1.6,6.4-1.6,9.9
		c0.1,1.7,0.3,3.6,0.9,5.4C60.9,53.2,62,55,63.6,56.3z M109.4,28.5c-0.2,0.7-0.4,1.4-0.6,2.1c-2,6.1-5.3,12.1-9.6,17.2
		c-2.1,2.6-4.6,4.9-7.2,6.9c-2.6,2-5.6,3.7-8.7,4.6c-2.9,0.9-6,0.9-8.1-0.5c3.4-0.5,6.5-1.8,9.5-3.2c6.1-3.1,11.2-7.6,15.6-12.6
		C103.9,38.8,107.3,34,109.4,28.5z M65.3,37.5c1.8-5.5,5-10.7,8.9-15.2c3.9-4.5,8.5-8.3,13.5-10.9c2.5-1.3,5.1-2.2,7.5-2.5
		c1.2-0.1,2.3-0.1,3.2,0.1c0.9,0.2,1.5,0.6,1.9,1c0.4,0.5,0.8,1,1,1.8c0.2,0.8,0.4,1.8,0.4,2.9c0,2.2-0.6,4.8-1.4,7.3
		c-1.8,5-4.2,10.2-7.5,14.8c-3.3,4.6-7.3,8.9-11.8,12.2c-2.3,1.6-4.7,3-7.2,3.6c-1.2,0.3-2.5,0.5-3.6,0.4c-1.1-0.1-2.1-0.4-3-1
		c-1.8-1.1-2.7-3.6-2.9-6.3C63.9,43.2,64.4,40.3,65.3,37.5z"/>
	<path d="M72.9,49.1c3.6-1.4,6.7-3.3,9.7-5.6c1.5-1.1,2.9-2.4,4.2-3.8c1.3-1.4,2.5-2.8,3.6-4.5c2.2-3.2,3.7-6.8,4.6-10.5
		c0.4-1.9,0.7-3.7,0.8-5.6c0.1-1.9,0.1-3.7-0.3-5.7C95.4,12.6,94.8,12,94,12c-0.9-0.1-1.7,0.6-1.8,1.5l0,0.1c-0.1,1.6-0.3,3.3-0.6,5
		c-0.3,1.7-0.7,3.3-1.2,4.9c-0.5,1.6-1,3.2-1.8,4.7c-0.3,0.8-0.7,1.5-1.1,2.2c-0.4,0.7-0.8,1.4-1.3,2.1c-0.9,1.4-2,2.7-3,3.9
		c-1.1,1.2-2.3,2.4-3.6,3.6c-2.5,2.3-5.3,4.4-8.1,6.3l-0.1,0.1c-0.6,0.4-0.9,1.2-0.6,1.9C71.2,49,72.1,49.4,72.9,49.1z"/>
</g>
</svg>
