<svg id="Lag_1" data-name="Lag 1" xmlns="http://www.w3.org/2000/svg" viewBox="0 0 221.28 214.55"><defs><style>.cls-1{fill:#bebebf;}.cls-2{fill:#505051;}.cls-3{fill:#7f7f7f;}.cls-4{fill:#fff;}</style></defs><title>Ikke-angivet-1</title><path class="cls-1" d="M282.61,137.13c-1.49,4.1-3.42,9.61-5.53,16.22-1.62,5.06-2,6.66-1.47,7,.94.59,3.69-3.08,13.08-13.82,7.61-8.7,9.39-10.41,9.37-13.67,0-5.15-4.53-6.47-3.83-11.22.51-3.55,3.21-4.13,7.18-10.14a44,44,0,0,0,4.43-8.85c5.67-13.05,48.78-30.46,55.44-20.72,3.2,4.66-5.51,10.4-13.23,33.81a135.89,135.89,0,0,0-6.82,37.06c-.17,5.12-.23,17.62,6.46,42.4,10.51,39,23.27,54.73,18.43,59s-17.87-10.58-48.85-22.68a201.46,201.46,0,0,0-56-12.72c-23.9-2.3-35.85-3.46-51.62,1.11-9,2.59-13.54,5.4-16,3.13-6.25-5.68,15-29.91,21.57-64.34a121.82,121.82,0,0,0-1.66-51.43L197.81,79.61l81.3,27.1c-.89,2.11-2.11,5.08-3.5,8.66-3.68,9.47-3.81,11.06-3.51,12.54C273.17,133.05,279.37,135.92,282.61,137.13Z" transform="translate(-175.4 -41.89)"/><path d="M197.58,81c3.64,9.49,10.79,17.06,14.76,26.44a73.26,73.26,0,0,1,5.71,32.06c-.57,11.76-4.45,22.89-8.73,33.74-4.4,11.17-8.92,22.29-13.38,33.43-1.73,4.33-9.05,16.47-1.49,19.49,2.88,1.15,5.92-.6,8.38-2,5.78-3.21,11.48-3.44,17.94-3.82,12.2-.72,24.46-1.27,36.65-.22A178.87,178.87,0,0,1,291.86,227c24.88,7.24,50.23,16,72.69,29.11a1.5,1.5,0,0,0,1.52-2.59c-18.56-10.79-38.85-18.13-59.14-24.91-21.33-7.13-42.74-12.18-65.34-12.08-10.62.05-22.4-.33-32.82,1.88a20.4,20.4,0,0,0-5,1.77c-1.65.84-4,2.95-5.81,3-6.48.28-2.46-7.37-1.64-9.43l3.64-9.09c4.33-10.81,8.75-21.59,13-32.44,3.8-9.78,7.12-19.79,8-30.3a75.71,75.71,0,0,0-4.19-31.65,74.81,74.81,0,0,0-6.64-13.9c-3.31-5.39-7.29-10.29-9.58-16.25-.68-1.78-3.59-1-2.89.8Z" transform="translate(-175.4 -41.89)"/><path d="M368.07,254.15c-11.81-27.51-20.29-56.9-23.76-86.68-3.53-30.17,7.62-57.9,19.39-85,.76-1.75-1.82-3.28-2.59-1.51-12,27.62-23.39,55.86-19.8,86.56,3.54,30.35,12.13,60.16,24.17,88.19.76,1.77,3.34.24,2.59-1.51Z" transform="translate(-175.4 -41.89)"/><path d="M253.49,81.54c-1.26,3.33-3.76,6.93-3.23,10.66.48,3.38,3.63,5.57,6.45,7,3.73,2,7.89,2.9,11.85,4.27,2.11.72,5.82,1.72,7.49,3.45,3,3.15-.9,8-3,10.46s-4.51,4.57-3.95,8.06c.44,2.76,2.75,4.87,5,6.3,1.43.92,3.07,1.32,4.5,2.16,4.27,2.49,1.7,7.84.09,11.32-2.26,4.92-4.68,9.72-5.81,15-.4,1.88,2.49,2.69,2.89.8,1.2-5.64,3.9-10.67,6.22-15.89,1.5-3.35,3.05-6.17,1.68-9.81-1.57-4.18-4.09-3.79-7.56-5.9-3.09-1.88-4.7-4.42-2.81-7.8,1.14-2,3.25-3.7,4.53-5.7s4-6.7,2.71-9.32-6.6-4.38-9.13-5.35c-4.32-1.66-9-2.52-13.15-4.69-3.32-1.74-5.38-4.22-4.42-8.22.5-2.08,1.82-4.09,2.58-6.11.68-1.8-2.21-2.58-2.89-.79Z" transform="translate(-175.4 -41.89)"/><path d="M198.68,81.7l54.5-1.13c1.93,0,1.93-3,0-3l-54.5,1.13c-1.93,0-1.93,3,0,3Z" transform="translate(-175.4 -41.89)"/><path d="M278.11,162.64l17.7-24.18c1.68-2.29,5.05-5.09,4.31-8.25A4,4,0,0,0,298.8,128c-2.31-2.17-1.33,0-3.2-3.8-1.84-1.79-1.73-3.42.35-4.87l2.35-2.64,4.71-5.28c1.61-1.81,4.25-3.92,4.35-6.55.08-2-.94-2.85-2.27-4.09-1.52-1.41-3.21-2.06-3.75-4.3a6,6,0,0,1,3.57-6.87c1.78-.69,1-3.59-.8-2.89a9.12,9.12,0,0,0-5.36,11.58,7.68,7.68,0,0,0,1.85,2.86c1.58,1.58,3.17,1.53,2.95,4s-3.38,5-5,6.79-3.57,3.84-5.19,5.88-3.46,4.81-2.68,7.59c1,3.51,6.48,3.66,5.52,7.48-.52,2-3.48,4.74-4.73,6.45l-5.31,7.25-10.62,14.51c-1.15,1.56,1.46,3.06,2.59,1.52Z" transform="translate(-175.4 -41.89)"/><ellipse class="cls-2" cx="149.15" cy="171.74" rx="6.73" ry="6.82"/><path d="M302.92,85.81c10.07,0,20.19.28,30.24-.08,9.54-.34,18.71-6.29,28.21-4.75,1.89.31,2.7-2.58.8-2.89-9.56-1.55-17.9,3.91-27.27,4.57-10.57.75-21.38.13-32,.15a1.5,1.5,0,0,0,0,3Z" transform="translate(-175.4 -41.89)"/><path d="M327.86,206.23c-9.27-5-16.52,13.23-5.7,15,4.47.73,9.76-.06,10.65-5.22s-.55-8.69-5.4-10.64c-.89-.36-1.28,1.09-.4,1.45,3.41,1.37,4.74,3.7,4.5,7.34-.13,1.9-.45,3.87-2.23,4.93a9.09,9.09,0,0,1-4.71.82c-1.8,0-3.83-.16-5.16-1.49-1.48-1.49-1.27-4-.76-5.92,1-3.68,4.53-7.09,8.45-5,.85.46,1.61-.84.76-1.29Z" transform="translate(-175.4 -41.89)"/><path class="cls-3" d="M256.82,78.69v-.37a6.69,6.69,0,0,1,.09-.9A48,48,0,0,0,255,65.26c-1.43-4.94-3.63-12.53-9.28-14.41-2.91-1-4.5.34-9.89.95-5.8.66-10.07-.15-16-1.29-15.6-3-16.2-8.55-24.23-7.86-10.31.89-20.2,11-19.09,17.81.33,2,1.75,3.53,4.61,6.64,2.68,2.92,6.14,6.69,11.25,8.3,7.31,2.3,11.71-1.8,14.19.91,2.71,3-1.86,8.51,1.29,12.73,2.39,3.19,7.52,3.38,7.38,4s-4.82-.74-7.29,1.76c-.7.71-1.59,2.11-1.19,3.22.93,2.62,8.48,2.26,13.27,2,9-.43,13.64-2.11,14.19-.92.32.67-.7,2.3-7,6.63l-.19,5.53,22.86-9.4q3-5.89,5.9-11.8a55.84,55.84,0,0,0,1.16-10.41A5.25,5.25,0,0,1,256.82,78.69Z" transform="translate(-175.4 -41.89)"/><path d="M175.58,62.24c4,4.93,8.43,10.27,14.81,12,3.34.92,6.86.68,10.29.63,2,0,3.95-.07,5.92-.08,1,0,1.93,0,2.9,0q5.1,5.1,1.29,8.25c-.65.71.41,1.77,1.06,1.06,4.7-5.07,4.05-10.69-3.55-10.83-5.72-.1-11.92,1-17.51-.47-6.08-1.56-10.38-7-14.15-11.64-.61-.75-1.67.32-1.06,1.06Z" transform="translate(-175.4 -41.89)"/><path d="M205.8,76.31C205.35,79.86,204,89,208,91.16c1,.57,2.62.55,3.75.93a26.08,26.08,0,0,1,4.82,2.32c3.28,1.91,6.32,4.1,9.78,5.68.87.39,1.63-.9.76-1.3-4.74-2.16-8.77-5.64-13.58-7.62-2.82-1.16-5.09-1-6.1-4.15s-.51-7.42-.09-10.71c.13-1-1.37-1-1.5,0Z" transform="translate(-175.4 -41.89)"/><path d="M227.68,99.92c3.78-1.6,5-6.19,6.43-9.72a97.82,97.82,0,0,0,5.26-18.94c.17-.94-1.28-1.35-1.44-.4a100.28,100.28,0,0,1-3.44,13.89c-1.4,4.25-3,12-7.56,13.88-.89.37-.13,1.67.75,1.29Z" transform="translate(-175.4 -41.89)"/><path d="M216.24,94.17c3.49.32,8.34-1.14,9.71-4.73.78-2,.57-4.36.76-6.49a40.12,40.12,0,0,1,2.78-11.36c.36-.9-1.09-1.29-1.44-.4a40.62,40.62,0,0,0-2.69,10.27c-.25,2,0,4.48-.54,6.44-1.09,3.76-5.13,5.08-8.58,4.77-1-.09-1,1.41,0,1.5Z" transform="translate(-175.4 -41.89)"/><path d="M228.29,100.17c4.85-1,9.87-1.7,14.59-3.22.92-.29.53-1.74-.4-1.45-4.72,1.52-9.74,2.24-14.59,3.23-.94.19-.54,1.64.4,1.44Z" transform="translate(-175.4 -41.89)"/><path d="M244.17,95.86c-.18-4,1.64-7.2,2.84-10.85,1.06-3.23,1.24-6.7,1.66-10.06.12-1-1.38-1-1.5,0-.53,4.25-1,8.25-2.57,12.26-1.11,2.88-2.07,5.54-1.93,8.65,0,1,1.54,1,1.5,0Z" transform="translate(-175.4 -41.89)"/><path d="M212.06,93.74c-2,.21-4.58-.16-6.15,1.39a2.86,2.86,0,0,0-.51,3.79c1.06,1.44,3.29,1.4,4.85,1.41,4.29,0,8.59,0,12.88-.07a.75.75,0,0,0,0-1.5l-10.17,0c-1,0-3.35.5-4.18,0q-2.47-4,1.21-3.42a13.09,13.09,0,0,0,2.07-.14c.95-.09,1-1.6,0-1.5Z" transform="translate(-175.4 -41.89)"/><path d="M234.12,99.47c-3.3,1.6-11.17,6.74-6.79,11.08a.75.75,0,0,0,1.06-1.06c-3.31-3.28,4.15-7.59,6.49-8.72.87-.42.11-1.71-.76-1.3Z" transform="translate(-175.4 -41.89)"/><path d="M227,112c4.2-.42,7.12-2.88,10.79-4.78,4.25-2.21,9.06-3.51,13-6.29,4.46-3.15,5.45-8.06,5.77-13.25H255v0c-.05,1,1.45,1,1.5,0v0c.06-1-1.44-1-1.5,0-.37,5.94-2,10.48-7.57,13.47-2.88,1.54-6,2.62-8.92,4-3.8,1.81-7.25,4.89-11.57,5.32-1,.09-1,1.59,0,1.5Z" transform="translate(-175.4 -41.89)"/><path d="M256.52,89.59c1-8.88-.13-17.78-1.5-26.56-.15-1-1.59-.55-1.45.4,1.35,8.65,2.41,17.41,1.45,26.16-.1,1,1.4,1,1.5,0Z" transform="translate(-175.4 -41.89)"/><path d="M254.83,62c-3.2-3.79-5.53-8.22-8.73-12-.63-.74-1.68.33-1.06,1.06,3.19,3.79,5.53,8.22,8.73,12,.62.74,1.68-.33,1.06-1.06Z" transform="translate(-175.4 -41.89)"/><path d="M245.55,50.13c-8.62,1.43-17.49.16-26.08-1-8.25-1.09-16.26-2.87-23.5-7.14a.75.75,0,0,0-.76,1.3c7.4,4.36,15.62,6.2,24.06,7.33,8.81,1.17,17.84,2.42,26.68.95,1-.16.55-1.61-.4-1.45Z" transform="translate(-175.4 -41.89)"/><path class="cls-4" d="M396.68,59.07,382,67.56c-11,12-17.12,14.49-20.72,14.37-.73,0-4-.25-4.79,1.29-.64,1.28,1.09,2.52.92,4.6-.23,3.06-4.3,5.1-5.53,5.72-4.55,2.29-7.44.89-10,3.64-1.11,1.18-.86,1.75-1.78,3.18-3.18,5-10.88,5.48-14.37,5.72a29.84,29.84,0,0,1-15.39-3.15c-2.67-1.39-8-4.15-11-10.13-2.64-5.32-1.94-10.22-.92-17.33,1.18-8.21,1.95-13.57,6.45-17.69,6-5.47,14.28-4.89,16.78-4.61l40.74-10.69Z" transform="translate(-175.4 -41.89)"/><path d="M303,58.28c-2.85,3.5-3.82,7.5-4.17,11.94-.52,6.72-.45,13.53-.64,20.28,0,1,1.47,1,1.5,0q.22-7.84.44-15.68c.17-5.45.31-11,3.93-15.48.6-.74-.45-1.81-1.06-1.06Z" transform="translate(-175.4 -41.89)"/><path d="M298.14,91.57a22.08,22.08,0,0,0,11.8,12c.88.37,1.64-.92.76-1.3a20.6,20.6,0,0,1-11.11-11.11c-.37-.88-1.82-.49-1.45.4Z" transform="translate(-175.4 -41.89)"/><path d="M306.92,72c.37,9.84-2.4,38.4,15.5,32.81.92-.29.53-1.74-.4-1.45-15.57,4.87-13.27-22.51-13.6-31.36,0-1-1.54-1-1.5,0Z" transform="translate(-175.4 -41.89)"/><path d="M317.05,73.84c1.29,9.24,1.73,19.23,4,28.29,1.13,4.58,6,5,9.65,2.66.82-.51.07-1.81-.75-1.29a5.16,5.16,0,0,1-7.46-1.77c-.49-.81-.39-2.81-.52-3.77l-1.2-8.49-2.25-16c-.13-1-1.58-.55-1.44.4Z" transform="translate(-175.4 -41.89)"/><path d="M328.45,78.88a112.91,112.91,0,0,0,.33,14.6c.31,2.88.42,6.91,2.41,9.22,4.22,4.86,8-2.71,11.05-4.88.78-.56,0-1.86-.76-1.29-1.45,1-2.61,2.66-4,3.63-1.81,1.24,1.95,1.21-3.3.23-3.3-.61-2.83-.54-3.38-3.51-1.1-5.92-.94-12-.82-18a.75.75,0,0,0-1.5,0Z" transform="translate(-175.4 -41.89)"/><path d="M341.1,99.08c1.21-2.34,5.62-3.1,7.85-4.17,2.76-1.32,6.28-3,8.19-5.46,1.55-2,1-7.09-2.32-6.59-.95.15-.55,1.59.4,1.45a1.92,1.92,0,0,1,.78,2.8,2.41,2.41,0,0,1-1.61,2.83,29.43,29.43,0,0,1-2.51,1.66A44,44,0,0,1,345.06,95c-1.9.75-4.25,1.43-5.25,3.36-.45.86.85,1.62,1.29.76Z" transform="translate(-175.4 -41.89)"/><path d="M345.74,91.64l2.45-5.55c.72-.18,1.45-.33,2.18-.47,1-.2,2-.4,3-.62,2.28-.5,4.56-1.06,6.8-1.74a49.29,49.29,0,0,0,12.09-5.33,37.77,37.77,0,0,0,8.82-8.25c3.69-4.42,9.94-7,15-9.62.86-.44.1-1.74-.76-1.29-5.19,2.7-11.43,5.26-15.26,9.85A37.75,37.75,0,0,1,364.22,80.3c-5.33,2.08-11.16,2.39-16.43,4.34-3.61,1.34-4.05,3.82-3.49,7.4.14.95,1.59.55,1.44-.4Z" transform="translate(-175.4 -41.89)"/><path d="M303.69,59.28c7.28-6.14,19.11-5.92,28.05-7.61,10.29-2,20.47-4.4,30.53-7.28a.75.75,0,0,0-.39-1.45,340.86,340.86,0,0,1-34.29,8c-8.42,1.49-18.12,1.54-25,7.31-.73.62.33,1.68,1.06,1.06Z" transform="translate(-175.4 -41.89)"/><path class="cls-4" d="M332.75,101l.37.56a1.54,1.54,0,0,0,2.05.54,1.53,1.53,0,0,0,.54-2.06l-.37-.55a1.54,1.54,0,0,0-2-.54,1.51,1.51,0,0,0-.54,2.05Z" transform="translate(-175.4 -41.89)"/><path class="cls-4" d="M333.49,100.28a1.5,1.5,0,0,0,0-3,1.5,1.5,0,0,0,0,3Z" transform="translate(-175.4 -41.89)"/><path class="cls-4" d="M333.86,101.39a1.5,1.5,0,0,0,0-3,1.5,1.5,0,0,0,0,3Z" transform="translate(-175.4 -41.89)"/><path class="cls-4" d="M336.55,100.58a33.16,33.16,0,0,0,4-7.51c.7-1.8-2.2-2.58-2.9-.79A30.55,30.55,0,0,1,334,99.07c-1.14,1.57,1.47,3.07,2.59,1.51Z" transform="translate(-175.4 -41.89)"/></svg>