<svg id="Lag_1" data-name="Lag 1" xmlns="http://www.w3.org/2000/svg" viewBox="0 0 188.44 213.66"><defs><style>.cls-1,.cls-4{fill:#7e7e7f;}.cls-1,.cls-3,.cls-5{stroke:#000;stroke-miterlimit:10;}.cls-1{stroke-width:0.25px;}.cls-2,.cls-3{fill:#fff;}.cls-5{fill:none;}.cls-6{font-size:12px;font-family:MyriadPro-Regular, Myriad Pro;}</style></defs><title>arbejde</title><path class="cls-1" d="M356.76,198.74c-8.54,6.27-30.85,22.49-54.39,37.34-18.64,11.76-22,12.52-31.45,18.62a75.87,75.87,0,0,1-12.24,6.51c-2.8,1.17-5.16,2-6.62,2.42-7.77-11.86-13.43-21.14-16.27-26A125,125,0,0,1,229.47,225c-.49-1.14-.88-2.29-.88-2.29a10.68,10.68,0,0,1-.52-1.67c-.19-2.45,6.41-3.56,6.72-6.62.09-.9-.47-.9-1.63-3.65a34.14,34.14,0,0,1-1.59-5.1c-.45-1.69-1.15-4.17-2.11-7.27,10.82-4.08,19.71-6.82,25.65-8.54,12.9-3.71,17.64-4.22,28.29-8.08,8.38-3,11.29-4.83,20.2-8.78a316.3,316.3,0,0,1,35.78-13.29Z" transform="translate(-190.8 -50.58)"/><path class="cls-2" d="M378.6,117.51c-1,1.7-2.27.65-7.37,3.51-6.65,3.73-5.7,6.16-13.35,11.42a17.11,17.11,0,0,0-5.45,5.27,16.85,16.85,0,0,0-1.76,4c-1.21,3.7-3.37,9.1-5.27,11.95-2.59,3.89-4.94,3.36-10.71,7.38a47.17,47.17,0,0,0-13.7,15.1c-3.17,5.48-2.09,6.43-7.56,17.92-3.43,7.22-5.12,9.48-7.73,10-3.28.67-7.53-1.51-8.25-4.21-.15-.55-.11-1,.52-3.87.72-3.23,1.08-4.85,1.41-6,2.35-7.93,7.38-15.89,5.8-17.39-2.16-2-15.05,9.41-17.77,6.88-1.29-1.2,1-4.34-.68-9.69-.72-2.27-1.43-2.61-1.75-4-1.15-5.07,5.44-10.65,7.73-12.65,10.73-9.37,1-4.45,26.87-30.21,14.15-14.07,14.78-13.26,16.86-17.39,2-3.9,5-8.69,11.07-18.27,1-1.54,1.48-2.32,2.5-2.77C358.83,80.57,383.54,109.45,378.6,117.51Z" transform="translate(-190.8 -50.58)"/><path d="M349.69,84.34c-5.15,7.8-10.35,15.56-15.69,23.24s-12.23,12.8-18.37,19.57c-5.7,6.27-10.71,13.08-16.67,19.12-5.37,5.44-10.85,10.68-14.74,17.33a.38.38,0,0,0,.65.38c4.42-7.56,10.94-13.23,16.89-19.52s10.76-13.19,16.73-19.27c5.67-5.78,11.49-10.52,16.16-17.24,5.33-7.67,10.54-15.44,15.68-23.24.27-.4-.38-.78-.64-.37Z" transform="translate(-190.8 -50.58)"/><path d="M285.93,161c-1.41,2.09-2.35,3.63-1.76,6,.33,1.35,1.62,2.65,1.72,4.22.05.74-.05,1.49,0,2.23a35.57,35.57,0,0,0,1.16,6.21.37.37,0,0,0,.72-.2,33.45,33.45,0,0,1-1.15-6.35c-.06-1.11.2-2.28,0-3.38a4.65,4.65,0,0,0-.95-2.16c-1.48-2.5-.76-3.76.88-6.19.27-.4-.38-.78-.65-.38Z" transform="translate(-190.8 -50.58)"/><path d="M287.86,180.34c6.08-2.67,12.53-5,18.12-8.61.4-.27,0-.91-.38-.65-5.59,3.61-12,5.94-18.11,8.62-.44.19-.06.84.37.64Z" transform="translate(-190.8 -50.58)"/><path d="M306.5,171.41c.63-3.1,1.79-6,2.13-9.18a29.51,29.51,0,0,0-.82-10.21c-.11-.47-.84-.27-.72.2a28.43,28.43,0,0,1,.69,10.63c-.38,2.88-1.43,5.53-2,8.36-.1.48.63.68.72.2Z" transform="translate(-190.8 -50.58)"/><path d="M298,198.52A213.86,213.86,0,0,1,305.48,172c.17-.45-.56-.65-.72-.2a213.9,213.9,0,0,0-7.5,26.51c-.1.47.63.67.73.2Z" transform="translate(-190.8 -50.58)"/><path d="M296.75,198.72c1,2.1,3.34,5.66,5.84,6.12,3,.55,5.72-2.38,7.5-4.27.33-.35-.2-.88-.53-.53-1.89,2-3.95,4.37-6.9,3.59-2.45-.65-4.18-3-5.27-5.29-.21-.43-.85-.05-.64.38Z" transform="translate(-190.8 -50.58)"/><path d="M311.07,200.21c2.8-7,5.41-14.1,8.47-21,2.94-6.58,7.14-10.77,12.39-15.52a39.17,39.17,0,0,0,12.72-27.16c0-.48-.72-.48-.75,0a38.86,38.86,0,0,1-6,19c-3.39,5.29-8.21,8.5-12.48,12.92-7.84,8.12-11,21.34-15.11,31.55-.18.45.55.64.73.2Z" transform="translate(-190.8 -50.58)"/><path d="M335.49,161.38c3.6-1.39,6.64-2.91,8.66-6.33,3-5.12,5.18-10.92,7.68-16.31.2-.44-.44-.82-.65-.38q-2.94,6.36-5.89,12.72c-2.28,4.89-4.89,7.6-10,9.58-.45.17-.26.89.2.72Z" transform="translate(-190.8 -50.58)"/><path d="M351.83,138.24A81.17,81.17,0,0,1,378,117.72c.43-.21.05-.86-.38-.65a81.61,81.61,0,0,0-26.34,20.64c-.31.37.22.9.53.53Z" transform="translate(-190.8 -50.58)"/><path d="M287.28,179.86l-14.87,4.94c-4.45,1.48-9,2.19-13.48,3.57-9.76,3-19.2,6.48-29.18,8.8-.47.11-.27.83.2.72,10-2.32,19.42-5.78,29.17-8.8,4.16-1.28,8.46-1.91,12.61-3.27,5.26-1.73,10.5-3.49,15.75-5.24.46-.15.26-.87-.2-.72Z" transform="translate(-190.8 -50.58)"/><path d="M229,198.05c4.46,16.19,7.77,33.4,15.67,48.35.22.43.87,0,.64-.38-7.85-14.88-11.15-32.06-15.59-48.17a.37.37,0,0,0-.72.2Z" transform="translate(-190.8 -50.58)"/><path d="M245.73,246.85c4.4-.74,8.07-2.84,12.08-4.69a128,128,0,0,1,15.55-5.7c9.22-2.87,18.46-5.51,27-10.12,8.83-4.77,18.3-7.46,27.5-11.37a176.36,176.36,0,0,0,27.47-14.71c.41-.26,0-.91-.37-.65a175.23,175.23,0,0,1-25.84,14c-9.19,4-18.89,6.47-27.69,11.28-9,4.91-18.53,7.81-28.27,10.83a137.72,137.72,0,0,0-13.24,4.68c-4.78,2-9.21,4.84-14.39,5.72-.48.08-.27.81.2.72Z" transform="translate(-190.8 -50.58)"/><path d="M355.89,200.38c1.52-.92,1.34-1.79.74-3.5-1.26-3.66-3.26-7.21-4.86-10.74l-12.07-26.6c-.2-.44-.84-.06-.64.38l8.44,18.62c1,2.16,10.3,19.8,8,21.19a.38.38,0,0,0,.38.65Z" transform="translate(-190.8 -50.58)"/><path d="M233.5,216.35a18.21,18.21,0,0,1-5.62,4.39c-.43.22,0,.86.38.65a18.76,18.76,0,0,0,5.77-4.51c.32-.36-.21-.9-.53-.53Z" transform="translate(-190.8 -50.58)"/><path d="M227.63,221.28c2,7.61,6.16,14.19,10.2,20.86,4.45,7.35,9,14.64,13.9,21.68.28.39.93,0,.65-.38-4.57-6.53-8.81-13.28-12.95-20.1-4.31-7.11-8.94-14.13-11.08-22.26a.37.37,0,0,0-.72.2Z" transform="translate(-190.8 -50.58)"/><path d="M252.13,264.24c4.28-.92,7.9-3.35,11.66-5.52,4.36-2.52,8.7-5.09,13-7.66l25-14.78c8.05-4.76,16.29-9.31,24.07-14.5a273.41,273.41,0,0,0,22-16.88c.37-.3-.16-.83-.53-.53-7.55,6.22-15.12,12.46-23.34,17.78-7.35,4.75-15,9-22.54,13.48l-23.34,13.81c-3.81,2.25-7.62,4.51-11.44,6.74-4.63,2.7-9.45,6.2-14.74,7.33-.47.1-.27.83.2.73Z" transform="translate(-190.8 -50.58)"/><path class="cls-3" d="M368.42,151.41" transform="translate(-190.8 -50.58)"/><path class="cls-2" d="M304.21,137.54a4.11,4.11,0,0,1-3.59,0c-2.86-1.43-1.17-5.7-3.76-12.18-2-5-3.87-4.69-5.69-10.32-.76-2.35-.8-3.56-2.06-5.06-2.42-2.93-7.06-4.15-8.14-2.86-1.32,1.56,4,5.15,4.43,12.19.07,1.15-.88,4.54-2.79,11.29-2.16,7.61-2.83,9.3-3.93,11.3-.95,1.74-.51.56-4.42,6.39-2.19,3.27-3.18,4.9-5.17,5.39a3.86,3.86,0,0,1-3.18-.44c-1.61-1.31-1-4.58-.67-6.62a14.17,14.17,0,0,1,1.61-5.35c1.79-3,3.75-2.95,4.37-5.25.42-1.58-.39-2-.86-4.82-.78-4.68,1.11-5.71.27-9-.75-2.93-2.37-2.55-4.78-6.64-2.64-4.48-1.32-6-3.38-8.83-2.61-3.59-7.76-5.35-12.06-4.93s-6.94,2.9-12.17,7.72c-3.93,3.63-5.9,5.44-6.29,7-1.9,7.45,9.51,16.54,14.49,27.93a11.36,11.36,0,0,1,.91,6.82c-.15.73-.83,4.09-3,4.88s-4.75-1.87-9.74-5.85c-11.46-9.16-11.14-8.85-11.4-9.1-6.69-6.51-4.76-8.88-14.73-25.92-6.86-11.73-10.33-15-11-19.93a15.38,15.38,0,0,0-3.06-7.79A23.1,23.1,0,0,0,191.8,85c-5.17-5.78,10.85-36,22.58-34,2,.33,2.53,1.37,6.12,4.13,5.52,4.25,10.14,6.28,19.4,10.33,10.68,4.67,22,8.13,27.42,11.56,1.27.82,2.07,1.29,3.68,2.22,4.39,2.55,5.5,2.88,6.14,3,2.08.52,2.05-.06,4.9.47,2.2.4,4,.74,5.65,2.08,1.2,1,1.29,1.75,2.77,4.19a52,52,0,0,0,3.77,5.23,93.55,93.55,0,0,1,8.08,13.64C307.6,119,309.1,135,304.21,137.54Z" transform="translate(-190.8 -50.58)"/><path d="M214.12,51.2c4.89,3.86,9.29,7.62,15,10.39,5.93,2.89,12.24,4.91,18.48,7,7.31,2.46,14.64,5,21.18,9.19,2.53,1.61,4.87,3.46,7.7,4.52,3.45,1.29,7.17,1.57,10.64,2.86.45.17.65-.55.2-.72-3.21-1.2-6.61-1.49-9.84-2.57s-6.08-3.39-9.07-5.22A88.53,88.53,0,0,0,251.17,69c-6.25-2.17-12.6-4.08-18.68-6.72-6.81-3-12.06-7.08-17.84-11.64-.38-.29-.91.23-.53.53Z" transform="translate(-190.8 -50.58)"/><path d="M287.37,85c3.79,7.57,10.4,13.29,14,21,2.15,4.61,3,9.66,3.76,14.64.77,4.81,2.81,12.72-1.18,16.71a.38.38,0,0,0,.53.53c2.6-2.6,2.58-6.06,2.36-9.57a89.84,89.84,0,0,0-2.51-16c-2.71-11-11.41-17.89-16.3-27.67-.22-.43-.87,0-.65.38Z" transform="translate(-190.8 -50.58)"/><path d="M280,106.25a74.23,74.23,0,0,0,9,4.07c.46.17.65-.56.2-.73a71.3,71.3,0,0,1-8.82-4c-.42-.23-.8.42-.38.65Z" transform="translate(-190.8 -50.58)"/><path d="M288.77,110.58c.79,3,2.44,5.4,4,8a53.17,53.17,0,0,1,4.76,11.58c.15.46.87.26.73-.2a60.39,60.39,0,0,0-3.52-9.4c-1.75-3.47-4.27-6.4-5.26-10.23a.38.38,0,0,0-.73.2Z" transform="translate(-190.8 -50.58)"/><path d="M297.71,130.55c.27,2.54,1.1,5.69,2.92,7.6a2.58,2.58,0,0,0,4.06-.69c.18-.45-.55-.64-.72-.2-.62,1.56-2.73.37-3.32-.37a8.47,8.47,0,0,1-.91-1.64,14.72,14.72,0,0,1-1.28-4.7c0-.47-.8-.48-.75,0Z" transform="translate(-190.8 -50.58)"/><path d="M258,75.88c5.32,1.73,11.7,4,14,9.72.18.45.91.25.73-.19-2.44-6-8.93-8.43-14.55-10.25-.46-.15-.65.58-.2.72Z" transform="translate(-190.8 -50.58)"/><path d="M272.3,86c1.47,6.7,5.05,13,7.89,19.17.2.44.85.06.65-.38-2.82-6.14-6.36-12.37-7.82-19-.1-.47-.83-.27-.72.2Z" transform="translate(-190.8 -50.58)"/><path d="M250.41,101.34c1.62-.58,3.45.64,4.74,1.46q1.62,1,3.15,2.16c1.33,1,2.34,2,4,1.48.46-.15.26-.87-.2-.72-1.53.5-3-1.13-4.13-1.91s-2.09-1.44-3.18-2.1c-1.48-.9-2.87-1.71-4.6-1.1-.45.17-.26.89.2.73Z" transform="translate(-190.8 -50.58)"/><path d="M262.38,106c.25,6,2.85,14.26,9.2,16.42.46.16.65-.57.2-.72-6-2-8.41-10-8.65-15.7,0-.48-.77-.48-.75,0Z" transform="translate(-190.8 -50.58)"/><path d="M270.56,122.92c.95,2.79-.57,6.37-.52,9.32,0,1.69,0,3.73,1.39,4.9.37.31.9-.22.53-.53-2.11-1.77-1.13-6.85-.71-9.13a8.75,8.75,0,0,0,0-4.76c-.16-.45-.88-.26-.73.2Z" transform="translate(-190.8 -50.58)"/><path d="M271.12,135.64c-1.94.28-2,2.46-3,3.75s-2.44,2.19-2.76,3.9c-.09.48.63.68.72.2.28-1.5,1.56-2.34,2.48-3.45s1.16-3.44,2.76-3.67c.47-.07.27-.8-.2-.73Z" transform="translate(-190.8 -50.58)"/><path class="cls-4" d="M265.71,143.65a11.21,11.21,0,0,0-5.62-4.54,9,9,0,0,0-7.13.48,16.35,16.35,0,0,0-3.43,2.73,9.59,9.59,0,0,0-1.61,1.82c-1.39,2.22-.82,5.1-.2,7.65a8,8,0,0,0,.79,2.24c.94,1.56,2.81,2.28,4.57,2.73,3,.77,6.53,1,8.84-1.11a9,9,0,0,0,2.19-3.36,20.89,20.89,0,0,0,1.51-9.51" transform="translate(-190.8 -50.58)"/><path d="M266,143.46c-2.88-4.06-7.91-6.65-12.78-4.41-5.84,2.67-7.84,8.13-5.58,14,1.59,4.15,7.78,5.42,11.7,4.34,5.84-1.59,6.86-9.53,6.63-14.6,0-.48-.77-.48-.75,0,.18,4.05-.31,9.17-3.35,12.14s-10.56,2.75-13.07-1.08c-3-4.56-.87-10.59,3.39-13.35,4.75-3.1,10.13-.94,13.16,3.35.28.39.93,0,.65-.38Z" transform="translate(-190.8 -50.58)"/><path d="M264.64,151.56c.75,1.84,1.77,3.57,4.05,3.31,3-.35,4.16-4.23,5.57-6.32,2.46-3.63,5.22-6.08,6.45-10.4,1.75-6.16,3.19-12.42,4.78-18.62a.38.38,0,0,0-.73-.2c-1.64,6.39-2.87,13.09-5,19.35-1.1,3.27-3.24,5.59-5.28,8.28-.6.8-1.15,1.59-1.68,2.44l-.66,1.22q-1.49,3.94-6.8.74c-.19-.44-.91-.25-.73.2Z" transform="translate(-190.8 -50.58)"/><path d="M285.76,119.2c-1-5-4.05-9-4.75-14.17-.06-.48-.79-.28-.72.2.7,5.14,3.77,9.17,4.75,14.16.09.48.82.28.72-.19Z" transform="translate(-190.8 -50.58)"/><path d="M192.31,85.54c3.21,2.75,3.71,6.63,4.84,10.44a48.15,48.15,0,0,0,4.47,9.6c3.84,6.9,8.71,13.06,12.69,19.83,3.48,5.91,5.29,12.57,10.33,17.46a89.08,89.08,0,0,0,8.42,6.71c2.91,2.21,5.74,4.87,9.07,6.39.43.2.81-.44.38-.64-3.31-1.52-6.19-4.21-9.07-6.4-3.26-2.46-6.73-4.8-9.49-7.83-5.25-5.77-7.27-13.9-11.75-20.27a155.87,155.87,0,0,1-12.12-19.64C197.49,96,197.45,89,192.84,85c-.37-.32-.9.21-.53.53Z" transform="translate(-190.8 -50.58)"/><path d="M242.34,156.11a3.4,3.4,0,0,0,3.42-.18,7,7,0,0,0,2-2.87c.21-.43-.44-.81-.65-.38a7.57,7.57,0,0,1-1.43,2.31,2.71,2.71,0,0,1-3.17.39c-.45-.18-.64.55-.2.73Z" transform="translate(-190.8 -50.58)"/><path d="M249.55,100.51l-10.5,8.4c-2.71,2.17-5.42,4.24-7.46,7.09-.28.39.37.77.65.38,2.27-3.16,5.44-5.42,8.45-7.82l9.39-7.52c.38-.3-.16-.83-.53-.53Z" transform="translate(-190.8 -50.58)"/><path d="M231.57,116.48c.46,11.53,12.25,17.67,14.35,28.62.09.47.82.27.72-.2-2.09-10.89-13.86-17-14.32-28.42,0-.48-.77-.48-.75,0Z" transform="translate(-190.8 -50.58)"/><path d="M294.29,94.61q-8.58-2.92-17.32-5.3a.37.37,0,0,0-.2.72q8.75,2.39,17.32,5.3c.46.16.66-.57.2-.72Z" transform="translate(-190.8 -50.58)"/><path class="cls-2" d="M266.37,151.21l.12.1a1.55,1.55,0,0,0,2.12,0,1.51,1.51,0,0,0,0-2.12l-.12-.1a1.55,1.55,0,0,0-2.12,0,1.52,1.52,0,0,0,0,2.12Z" transform="translate(-190.8 -50.58)"/><path class="cls-2" d="M266.05,152.22A2.19,2.19,0,0,0,269,153,2.82,2.82,0,0,0,270,152c.2-.27.32-.64.56-.75h-1.52l.12.06-.54-.54c0-.86-.06-1.15-.06-.85l-.3.39c-.09.11-.61.62-.6.75s0,.16.37,0l-.19-.12c-.08-.18-.34-.37-.48-.53a1.52,1.52,0,0,0-2.12,0,1.55,1.55,0,0,0,0,2.13c.8.94,2.05,1.82,3.36,1.42a3,3,0,0,0,1.48-1.14,10.41,10.41,0,0,0,1.11-1.46c.67-1.24-.06-3.32-1.79-2.85A2.88,2.88,0,0,0,268,149.7a2.62,2.62,0,0,0-.42.66l.06-.06c.34-.17.68,0,1,.4-1-1.63-3.63-.12-2.59,1.52Z" transform="translate(-190.8 -50.58)"/><path class="cls-2" d="M293.6,200.73c0,.82.54,1.92,1.54,4.07,4.47,9.62,4.86,10.37,4.57,11.48-1,3.89-8.92,6.57-11.94,4.17-2-1.6-.27-4.19-2.44-10.58a46.3,46.3,0,0,0-3.61-7.6c-1.23-2.23-2.07-3.94-3.74-7.36a8.13,8.13,0,0,1-1.05-3c-.27-2.45.79-5.41,2.48-5.9.69-.2,1.06.12,1.9-.28s.83-.77,1.73-1.16c.62-.26.67-.11,1.21-.36,1.06-.49.92-1.12,1.69-1.4.92-.34,1.4.49,2.75.21.68-.14.68-.38,1.22-.39a2.66,2.66,0,0,1,2.12,1.14c.65.94.23,1.75,1,2.38a1.93,1.93,0,0,0,.84.39c1.47.41,3,2.84,3.31,4.62C297.81,194.86,293.39,196.38,293.6,200.73Z" transform="translate(-190.8 -50.58)"/><path d="M288.49,220.25c-1.26-5.05-2-10.72-4.41-15.38-1-2-2.48-3.78-3.52-5.77-1.14-2.19-1.74-4.67-2.75-6.93-.4-.88-1.69-.12-1.3.76,1.86,4.13,3.4,7.61,5.63,11.58,2.73,4.84,3.56,10.78,4.9,16.14a.75.75,0,0,0,1.45-.4Z" transform="translate(-190.8 -50.58)"/><path d="M277.86,192.07a9.62,9.62,0,0,1,.57-3.24c.27-1.15.93-2.85,2.44-2.24.89.37,1.28-1.08.4-1.44a3,3,0,0,0-3.81,1.84,11.75,11.75,0,0,0-.77,2.86,7.09,7.09,0,0,0-.28,2.62c.16.95,1.61.55,1.45-.4Z" transform="translate(-190.8 -50.58)"/><path d="M281.74,186.44c.56-.63,1.31-1.89,2.31-1.51s1.3-1.11.4-1.44c-1.64-.62-2.8.81-3.77,1.89-.64.71.42,1.78,1.06,1.06Z" transform="translate(-190.8 -50.58)"/><path d="M285.17,184.42c.19-.61,1-.87,1.58-1s.84.36,1.3.65c.81.54,1.56-.76.76-1.29a5.73,5.73,0,0,0-1.21-.82,2.63,2.63,0,0,0-1.52.08,3,3,0,0,0-2.36,1.95c-.29.92,1.16,1.32,1.45.39Z" transform="translate(-190.8 -50.58)"/><path d="M289.08,183.91c.49-.8,1.14-.4,1.75.05a3.47,3.47,0,0,1,1,2.51c.14.95,1.59.55,1.45-.4a4.45,4.45,0,0,0-2.33-3.75,2.22,2.22,0,0,0-1.53-.41,2.6,2.6,0,0,0-1.67,1.24c-.51.83.79,1.58,1.3.76Z" transform="translate(-190.8 -50.58)"/><path d="M292.63,187.11a4.6,4.6,0,0,1,1,.16.75.75,0,0,0,.39-1.45,6.76,6.76,0,0,0-1.42-.21c-1,0-1,1.47,0,1.5Z" transform="translate(-190.8 -50.58)"/><path d="M293.29,187c1.92,2.74,3.8,4.47,2,8.14a36,36,0,0,0-2.47,5.44.75.75,0,0,0,1.45.4c.79-2.76,3.15-5.2,3.56-8,.37-2.54-2-4.81-3.3-6.72-.55-.79-1.85,0-1.29.76Z" transform="translate(-190.8 -50.58)"/><path d="M293,201.15c1.27,5.64,4.92,10.16,6.4,15.63a.75.75,0,0,0,1.45-.4c-1.48-5.47-5.14-10-6.4-15.63-.21-.94-1.66-.54-1.45.4Z" transform="translate(-190.8 -50.58)"/><path d="M278.83,192.14a7.57,7.57,0,0,0,1.73-.67l-1.11-.45c.23,1.13.27,2.73,1.46,3.31a2.27,2.27,0,0,0,2.72-.88c2.14-2.94,0-5.62-1.67-8.1-.53-.8-1.83,0-1.3.76.76,1.16,2.3,2.75,2.38,4.19,0,.42-.46,3.42-1.74,2.26-.28-.25-.32-1.56-.4-1.94a.76.76,0,0,0-1.1-.45,4,4,0,0,1-1.37.52.75.75,0,0,0,.4,1.45Z" transform="translate(-190.8 -50.58)"/><path d="M282.53,194.18c.77.69,1.57,1.14,2.57.6a7.08,7.08,0,0,0,2.62-3.25c.35-1.28-.49-3-.82-4.25-.37-1.42-.63-2.79-2-3.6a.75.75,0,0,0-.75,1.3c1.17.7,1.58,3.59,1.83,4.79a2.29,2.29,0,0,1-.43,2.38c-.45.57-1.1,1.76-2,1-.72-.64-1.78.42-1.06,1.06Z" transform="translate(-190.8 -50.58)"/><path d="M292.31,185.82a12.42,12.42,0,0,1-3.21.69,4.22,4.22,0,0,0-2,.51c-1,.76-.65,2.09,0,3,1.43,2,5.6,3.87,7.27,1.17a.75.75,0,0,0-1.3-.76c-.95,1.54-4.59-.16-4.93-1.55-.26-1,1.54-.89,2.18-1a10.62,10.62,0,0,0,2.44-.6c.89-.35.5-1.8-.4-1.45Z" transform="translate(-190.8 -50.58)"/><path d="M288.93,199.19a4.58,4.58,0,0,1-.52-3.88,3.25,3.25,0,0,1,3.1-2.55c.94-.12.95-1.63,0-1.5-2,.26-3.42.85-4.23,2.76a6.3,6.3,0,0,0,.35,5.92c.53.81,1.83.06,1.3-.75Z" transform="translate(-190.8 -50.58)"/><path d="M285.65,193.57a2.13,2.13,0,0,0,2.56.45,3.36,3.36,0,0,0,1.65-2.53c.17-.94-1.27-1.35-1.45-.4a2.4,2.4,0,0,1-.65,1.45.71.71,0,0,1-1.05,0c-.63-.72-1.69.34-1.06,1.06Z" transform="translate(-190.8 -50.58)"/><path d="M290.09,186.54l-.72-3.1c-.21-.95-1.66-.55-1.44.39l.71,3.11c.21.94,1.66.55,1.45-.4Z" transform="translate(-190.8 -50.58)"/><path d="M281,190.56,280.6,189a.75.75,0,0,0-1.45.4l.44,1.57a.75.75,0,0,0,1.45-.39Z" transform="translate(-190.8 -50.58)"/><line class="cls-5" x1="71.11" y1="137.76" x2="85.23" y2="184.09"/><line class="cls-5" x1="110.6" y1="123.48" x2="111.82" y2="129.4"/><line class="cls-5" x1="118.5" y1="150.97" x2="124.36" y2="168.81"/><text class="cls-6" transform="matrix(0.94, -0.34, 0.34, 0.94, 137.58, 156.32)">100</text><text class="cls-6" transform="translate(48.73 157) rotate(-14.77)">100</text><text class="cls-6" transform="matrix(0.94, -0.34, 0.34, 0.94, 64.14, 101.72)">1</text></svg>